<svg width="42" height="42" viewBox="0 0 42 42" fill="none" xmlns="http://www.w3.org/2000/svg">
<g clip-path="url(#clip0_1_2)">
<line x1="20.5" y1="2" x2="20.5" y2="18" stroke="black" stroke-opacity="0.1"/>
<line x1="20.5" y1="23" x2="20.5" y2="39" stroke="black" stroke-opacity="0.1"/>
<line x1="41.5" y1="2" x2="41.5" y2="18" stroke="black" stroke-opacity="0.1"/>
<line x1="41.5" y1="23" x2="41.5" y2="39" stroke="black" stroke-opacity="0.1"/>
<line x1="2" y1="20.5" x2="18" y2="20.5" stroke="black" stroke-opacity="0.1"/>
<line x1="23" y1="20.5" x2="39" y2="20.5" stroke="black" stroke-opacity="0.1"/>
<line x1="23" y1="41.5" x2="39" y2="41.5" stroke="black" stroke-opacity="0.1"/>
<line x1="2" y1="41.5" x2="18" y2="41.5" stroke="black" stroke-opacity="0.1"/>
<circle cx="20.5" cy="20.5" r="1.5" fill="black" fill-opacity="0.1"/>
<circle cx="41.5" cy="41.5" r="1.5" fill="black" fill-opacity="0.1"/>
<circle cx="-0.5" cy="41.5" r="1.5" fill="black" fill-opacity="0.1"/>
<circle cx="-0.5" cy="-0.5" r="1.5" fill="black" fill-opacity="0.1"/>
<circle cx="20.5" cy="41.5" r="1.5" fill="black" fill-opacity="0.1"/>
<circle cx="41.5" cy="20.5" r="1.5" fill="black" fill-opacity="0.1"/>
<circle cx="41.5" cy="-0.5" r="1.5" fill="black" fill-opacity="0.1"/>
<circle cx="-0.5" cy="20.5" r="1.5" fill="black" fill-opacity="0.1"/>
<circle cx="20.5" cy="-0.5" r="1.5" fill="black" fill-opacity="0.1"/>
</g>
<defs>
<clipPath id="clip0_1_2">
<rect width="42" height="42" fill="white"/>
</clipPath>
</defs>
</svg>
